<svg width="20" height="20" viewBox="0 0 20 20" fill="none" xmlns="http://www.w3.org/2000/svg">
<g clip-path="url(#clip0_20670_2361)">
<path d="M6.66659 4.16602H4.99992C4.55789 4.16602 4.13397 4.34161 3.82141 4.65417C3.50885 4.96673 3.33325 5.39065 3.33325 5.83268V15.8327C3.33325 16.2747 3.50885 16.6986 3.82141 17.0112C4.13397 17.3238 4.55789 17.4993 4.99992 17.4993H9.74742" stroke="#707070" stroke-width="2" stroke-linecap="round" stroke-linejoin="round"/>
<path d="M15 11.666V14.9993H18.3333" stroke="#707070" stroke-width="2" stroke-linecap="round" stroke-linejoin="round"/>
<path d="M15.0001 9.16602V5.83268C15.0001 5.39065 14.8245 4.96673 14.5119 4.65417C14.1994 4.34161 13.7754 4.16602 13.3334 4.16602H11.6667" stroke="#707070" stroke-width="2" stroke-linecap="round" stroke-linejoin="round"/>
<path d="M6.66675 4.16667C6.66675 3.72464 6.84234 3.30072 7.1549 2.98816C7.46746 2.67559 7.89139 2.5 8.33341 2.5H10.0001C10.4421 2.5 10.866 2.67559 11.1786 2.98816C11.4912 3.30072 11.6667 3.72464 11.6667 4.16667C11.6667 4.60869 11.4912 5.03262 11.1786 5.34518C10.866 5.65774 10.4421 5.83333 10.0001 5.83333H8.33341C7.89139 5.83333 7.46746 5.65774 7.1549 5.34518C6.84234 5.03262 6.66675 4.60869 6.66675 4.16667Z" stroke="#707070" stroke-width="2" stroke-linecap="round" stroke-linejoin="round"/>
<path d="M11.6667 14.9993C11.6667 15.8834 12.0179 16.7312 12.6431 17.3564C13.2682 17.9815 14.116 18.3327 15.0001 18.3327C15.8841 18.3327 16.732 17.9815 17.3571 17.3564C17.9822 16.7312 18.3334 15.8834 18.3334 14.9993C18.3334 14.1153 17.9822 13.2674 17.3571 12.6423C16.732 12.0172 15.8841 11.666 15.0001 11.666C14.116 11.666 13.2682 12.0172 12.6431 12.6423C12.0179 13.2674 11.6667 14.1153 11.6667 14.9993Z" stroke="#707070" stroke-width="2" stroke-linecap="round" stroke-linejoin="round"/>
<path d="M6.66675 9.16602H10.0001" stroke="#707070" stroke-width="2" stroke-linecap="round" stroke-linejoin="round"/>
<path d="M6.66675 12.5H9.16675" stroke="#707070" stroke-width="2" stroke-linecap="round" stroke-linejoin="round"/>
</g>
<defs>
<clipPath id="clip0_20670_2361">
<rect width="20" height="20" fill="white"/>
</clipPath>
</defs>
</svg>
