<svg width="20" height="21" viewBox="0 0 20 21" fill="none" xmlns="http://www.w3.org/2000/svg">
<g clip-path="url(#clip0_20278_362)">
<path d="M14.8333 17.0142L13.0233 17.9626C12.9696 17.9905 12.9091 18.003 12.8488 17.9986C12.7884 17.9942 12.7304 17.9731 12.6813 17.9377C12.6322 17.9022 12.5939 17.8538 12.5707 17.7979C12.5475 17.742 12.5403 17.6807 12.55 17.6209L12.8958 15.6117L11.4316 14.1892C11.3879 14.147 11.357 14.0933 11.3423 14.0343C11.3277 13.9753 11.3299 13.9134 11.3488 13.8556C11.3676 13.7978 11.4023 13.7465 11.449 13.7075C11.4956 13.6685 11.5522 13.6434 11.6125 13.6351L13.6358 13.3417L14.5408 11.5142C14.5679 11.4598 14.6096 11.414 14.6612 11.382C14.7129 11.35 14.7725 11.333 14.8333 11.333C14.8941 11.333 14.9537 11.35 15.0053 11.382C15.057 11.414 15.0987 11.4598 15.1258 11.5142L16.0308 13.3417L18.0541 13.6351C18.1142 13.6437 18.1706 13.669 18.217 13.708C18.2634 13.747 18.298 13.7983 18.3168 13.8559C18.3356 13.9136 18.3379 13.9754 18.3235 14.0343C18.309 14.0932 18.2783 14.1468 18.235 14.1892L16.7708 15.6117L17.1158 17.6201C17.1261 17.68 17.1195 17.7415 17.0966 17.7978C17.0737 17.8541 17.0355 17.9029 16.9863 17.9386C16.9371 17.9742 16.8788 17.9954 16.8182 17.9996C16.7576 18.0039 16.697 17.991 16.6433 17.9626L14.8333 17.0142Z" stroke="#707070" stroke-width="2" stroke-linecap="round" stroke-linejoin="round"/>
<path d="M5.16678 17.0142L3.35678 17.9626C3.30307 17.9905 3.24264 18.003 3.18225 17.9986C3.12186 17.9942 3.06387 17.9731 3.01478 17.9377C2.96568 17.9022 2.9274 17.8538 2.90421 17.7979C2.88102 17.742 2.87383 17.6807 2.88345 17.6209L3.22928 15.6117L1.76512 14.1892C1.72141 14.147 1.69047 14.0933 1.67582 14.0343C1.66117 13.9753 1.6634 13.9134 1.68225 13.8556C1.70111 13.7978 1.73583 13.7465 1.78246 13.7075C1.82909 13.6685 1.88574 13.6434 1.94595 13.6351L3.96928 13.3417L4.87428 11.5142C4.90135 11.4598 4.94307 11.414 4.99474 11.382C5.04641 11.35 5.106 11.333 5.16678 11.333C5.22757 11.333 5.28715 11.35 5.33883 11.382C5.3905 11.414 5.43222 11.4598 5.45928 11.5142L6.36428 13.3417L8.38762 13.6351C8.44765 13.6437 8.50407 13.669 8.55049 13.708C8.59692 13.747 8.63149 13.7983 8.65031 13.8559C8.66912 13.9136 8.67143 13.9754 8.65696 14.0343C8.6425 14.0932 8.61184 14.1468 8.56845 14.1892L7.10428 15.6117L7.44928 17.6201C7.45964 17.68 7.45299 17.7415 7.4301 17.7978C7.40721 17.8541 7.36899 17.9029 7.31978 17.9386C7.27057 17.9742 7.21234 17.9954 7.15171 17.9996C7.09108 18.0039 7.03048 17.991 6.97678 17.9626L5.16678 17.0142Z" stroke="#707070" stroke-width="2" stroke-linecap="round" stroke-linejoin="round"/>
<path d="M10 8.68073L8.19004 9.62906C8.13632 9.65702 8.0759 9.6695 8.0155 9.6651C7.95511 9.6607 7.89713 9.63961 7.84803 9.60417C7.79893 9.56873 7.76065 9.52034 7.73746 9.4644C7.71427 9.40846 7.70708 9.34718 7.7167 9.2874L8.06254 7.27823L6.59837 5.85573C6.55467 5.81348 6.52372 5.7598 6.50907 5.70081C6.49442 5.64181 6.49665 5.57989 6.5155 5.5221C6.53436 5.46432 6.56908 5.413 6.61571 5.374C6.66234 5.33501 6.71899 5.3099 6.7792 5.30156L8.80254 5.00823L9.70754 3.18073C9.7346 3.1263 9.77632 3.0805 9.82799 3.04849C9.87967 3.01647 9.93925 2.99951 10 2.99951C10.0608 2.99951 10.1204 3.01647 10.1721 3.04849C10.2238 3.0805 10.2655 3.1263 10.2925 3.18073L11.1975 5.00823L13.2209 5.30156C13.2809 5.3102 13.3373 5.33546 13.3837 5.3745C13.4302 5.41353 13.4647 5.46477 13.4836 5.52243C13.5024 5.58009 13.5047 5.64187 13.4902 5.70077C13.4757 5.75967 13.4451 5.81335 13.4017 5.85573L11.9375 7.27823L12.2825 9.28656C12.2929 9.34645 12.2862 9.40805 12.2634 9.46435C12.2405 9.52065 12.2022 9.5694 12.153 9.60507C12.1038 9.64074 12.0456 9.6619 11.985 9.66614C11.9243 9.67038 11.8637 9.65754 11.81 9.62906L10 8.68073Z" stroke="#707070" stroke-width="2" stroke-linecap="round" stroke-linejoin="round"/>
</g>
<defs>
<clipPath id="clip0_20278_362">
<rect width="20" height="20" fill="white" transform="translate(0 0.5)"/>
</clipPath>
</defs>
</svg>
