<svg width="20" height="20" viewBox="0 0 20 20" fill="none" xmlns="http://www.w3.org/2000/svg">
<path d="M1.66675 17.4997C1.66675 16.3397 1.96939 15.1999 2.54477 14.1927C3.12016 13.1855 3.94837 12.3459 4.94758 11.7568C5.94678 11.1677 7.08241 10.8495 8.24224 10.8336C9.40207 10.8178 10.546 11.1048 11.5609 11.6663" stroke="#707070" stroke-width="2" stroke-linecap="round" stroke-linejoin="round"/>
<path d="M8.33341 10.8333C10.6346 10.8333 12.5001 8.96785 12.5001 6.66667C12.5001 4.36548 10.6346 2.5 8.33341 2.5C6.03223 2.5 4.16675 4.36548 4.16675 6.66667C4.16675 8.96785 6.03223 10.8333 8.33341 10.8333Z" stroke="#707070" stroke-width="2" stroke-linecap="round" stroke-linejoin="round"/>
<path d="M14.1667 14.167L18.3334 18.3337" stroke="#707070" stroke-width="2" stroke-linecap="round" stroke-linejoin="round"/>
<path d="M18.3334 14.167L14.1667 18.3337" stroke="#707070" stroke-width="2" stroke-linecap="round" stroke-linejoin="round"/>
</svg>
