<svg width="20" height="21" viewBox="0 0 20 21" fill="none" xmlns="http://www.w3.org/2000/svg">
<path d="M10.0001 18.8334C14.6025 18.8334 18.3334 15.1025 18.3334 10.5001C18.3334 5.89771 14.6025 2.16675 10.0001 2.16675C5.39771 2.16675 1.66675 5.89771 1.66675 10.5001C1.66675 15.1025 5.39771 18.8334 10.0001 18.8334Z" stroke="#707070" stroke-width="2" stroke-linecap="round" stroke-linejoin="round"/>
<path d="M13.3334 7.16675H8.33341C7.89139 7.16675 7.46746 7.34234 7.1549 7.6549C6.84234 7.96746 6.66675 8.39139 6.66675 8.83341C6.66675 9.27544 6.84234 9.69937 7.1549 10.0119C7.46746 10.3245 7.89139 10.5001 8.33341 10.5001H11.6667C12.1088 10.5001 12.5327 10.6757 12.8453 10.9882C13.1578 11.3008 13.3334 11.7247 13.3334 12.1667C13.3334 12.6088 13.1578 13.0327 12.8453 13.3453C12.5327 13.6578 12.1088 13.8334 11.6667 13.8334H6.66675" stroke="#707070" stroke-width="2" stroke-linecap="round" stroke-linejoin="round"/>
<path d="M10 15.5V5.5" stroke="#707070" stroke-width="2" stroke-linecap="round" stroke-linejoin="round"/>
</svg>
