<svg width="20" height="20" viewBox="0 0 20 20" fill="none" xmlns="http://www.w3.org/2000/svg">
<path d="M3.33325 18.3337V3.33366C3.33325 3.20429 3.36337 3.07669 3.42123 2.96098C3.47909 2.84527 3.56309 2.74461 3.66659 2.66699C4.53207 2.01788 5.58473 1.66699 6.66659 1.66699C9.16659 1.66699 10.8333 3.33366 12.7774 3.33366C13.8885 3.33366 14.7405 3.11144 15.3333 2.66699C15.4571 2.57414 15.6043 2.51759 15.7584 2.50369C15.9125 2.48979 16.0675 2.51909 16.2059 2.5883C16.3444 2.65751 16.4608 2.7639 16.5421 2.89555C16.6235 3.0272 16.6666 3.1789 16.6666 3.33366V11.667C16.6666 11.7964 16.6365 11.924 16.5786 12.0397C16.5208 12.1554 16.4367 12.256 16.3333 12.3337C15.4678 12.9828 14.4151 13.3337 13.3333 13.3337C10.8333 13.3337 9.16659 11.667 6.66659 11.667C5.43668 11.667 4.24994 12.1204 3.33325 12.9403" stroke="#707070" stroke-width="2" stroke-linecap="round" stroke-linejoin="round"/>
</svg>
