<svg width="20" height="21" viewBox="0 0 20 21" fill="none" xmlns="http://www.w3.org/2000/svg">
<path d="M12.5001 2.16675H7.50008C7.03984 2.16675 6.66675 2.53984 6.66675 3.00008V4.66675C6.66675 5.12699 7.03984 5.50008 7.50008 5.50008H12.5001C12.9603 5.50008 13.3334 5.12699 13.3334 4.66675V3.00008C13.3334 2.53984 12.9603 2.16675 12.5001 2.16675Z" stroke="#707070" stroke-width="2" stroke-linecap="round" stroke-linejoin="round"/>
<path d="M13.3333 3.83325H14.9999C15.4419 3.83325 15.8659 4.00885 16.1784 4.32141C16.491 4.63397 16.6666 5.05789 16.6666 5.49992V17.1666C16.6666 17.6086 16.491 18.0325 16.1784 18.3451C15.8659 18.6577 15.4419 18.8333 14.9999 18.8333H4.99992C4.55789 18.8333 4.13397 18.6577 3.82141 18.3451C3.50885 18.0325 3.33325 17.6086 3.33325 17.1666V5.49992C3.33325 5.05789 3.50885 4.63397 3.82141 4.32141C4.13397 4.00885 4.55789 3.83325 4.99992 3.83325H6.66659" stroke="#707070" stroke-width="2" stroke-linecap="round" stroke-linejoin="round"/>
<path d="M7.5 12.1667L9.16667 13.8333L12.5 10.5" stroke="#707070" stroke-width="2" stroke-linecap="round" stroke-linejoin="round"/>
</svg>
